<?xml version="1.0" standalone="no"?>
<!DOCTYPE svg PUBLIC "-//W3C//DTD SVG 20010904//EN"
 "http://www.w3.org/TR/2001/REC-SVG-20010904/DTD/svg10.dtd">
<svg version="1.0" xmlns="http://www.w3.org/2000/svg"
 width="700.000000pt" height="700.000000pt" viewBox="0 0 700.000000 700.000000"
 preserveAspectRatio="xMidYMid meet">
<metadata>
Created by potrace 1.14, written by Peter Selinger 2001-2017
</metadata>
<g transform="translate(0.000000,700.000000) scale(0.100000,-0.100000)"
fill="#000000" stroke="none">
<path d="M3390 6194 c-689 -34 -1317 -310 -1795 -789 -436 -437 -706 -1000
-776 -1615 -15 -135 -15 -445 0 -580 108 -951 699 -1767 1565 -2163 301 -138
624 -217 957 -236 339 -19 666 21 973 120 950 303 1654 1100 1835 2074 33 178
43 298 43 495 0 215 -12 339 -52 540 -210 1049 -1050 1890 -2097 2100 -208 41
-467 63 -653 54z m700 -1417 c0 -283 3 -589 7 -680 l6 -166 639 -213 c351
-117 638 -215 638 -218 0 -3 -287 -101 -638 -218 l-639 -213 -6 -187 c-4 -103
-7 -409 -7 -680 0 -292 -4 -492 -9 -490 -5 2 -183 239 -396 528 -213 289 -394
532 -403 541 -16 15 -66 1 -657 -187 -352 -112 -643 -203 -646 -201 -3 1 171
249 388 552 216 302 393 552 393 555 0 3 -177 253 -394 555 -216 303 -392 551
-391 553 3 3 642 -198 1129 -354 110 -35 172 -50 176 -44 29 46 797 1080 803
1080 4 0 7 -231 7 -513z"/>
</g>
</svg>
